<svg xmlns="http://www.w3.org/2000/svg" viewBox="0 0 488.8 488.8"><path d="M383.9 197.184c-9.9 0-18 8.1-18 18 0 10.4-7.3 19.1-17.1 21.2v-153.5c0-6.7-3.7-12.8-9.6-15.9-5.9-3.1-13.1-2.7-18.6 1.1-80.7 55.8-126.6 62.9-157.5 62.9h-79c-46.4 0-84.1 37.7-84.1 84.1 0 46.5 37.7 84.3 84.1 84.3h21.3v106.5c0 9.9 8.1 18 18 18s18-8.1 18-18v-238.8h21.7c32.2 0 77.6-6.2 149.8-50.8v190.6c-25.8-18.4-68-39-129.4-42.9-9.9-.6-18.5 6.9-19.1 16.8-.6 9.9 6.9 18.5 16.8 19.1 39.7 2.5 74.5 13 103.4 31.4 21 13.3 31.1 26.1 31.7 26.9 3.4 4.8 8.8 7.4 14.5 7.4 1.9 0 3.7-.3 5.6-.9 7.4-2.4 12.4-9.4 12.4-17.2v-74.8c29.7-2.3 53.1-27.2 53.1-57.5 0-9.9-8.1-18-18-18zm-278.5 66.2H84.1c-26.5 0-48.1-21.6-48.1-48.1 0-26.6 21.6-48.2 48.1-48.2h21.3v96.3zm365.4-66.2h-44.7c-9.9 0-18 8.1-18 18s8.1 18 18 18h44.7c9.9 0 18-8.1 18-18s-8.1-18-18-18zm10.4-54c-3.1-9.3-13.4-14.4-22.8-11.2l-43.3 14.8c-9.4 3.2-14.4 13.4-11.2 22.8 2.6 7.5 9.5 12.2 17 12.2 1.9 0 3.9-.3 5.8-1l43.3-14.8c9.4-3.2 14.4-13.4 11.2-22.8zm-11.2 121.2l-43.3-14.8c-9.4-3.2-19.6 1.8-22.8 11.2-3.2 9.4 1.8 19.6 11.2 22.8l43.3 14.8c1.9.7 3.9 1 5.8 1 7.5 0 14.5-4.7 17-12.2 3.3-9.4-1.8-19.6-11.2-22.8z"/></svg>