<svg xmlns="http://www.w3.org/2000/svg" viewBox="0 0 487.5 487.5"><path d="M420.2 124.1H129.3c-24.3 0-44-19.8-44-44s19.8-44 44-44h290.9c9.9 0 18-8.1 18-18S430.1 0 420.2 0H129.3c-44.1 0-80 35.9-80 80v327.3c0 44.1 35.9 80 80 80H345c9.9 0 18-8.1 18-18s-8.1-18-18-18H129.3c-24.3 0-44-19.8-44-44V146.9c12.6 8.4 27.8 13.3 44 13.3h272.9v309.3c0 9.9 8.1 18 18 18s18-8.1 18-18V142.1c0-9.9-8.1-18-18-18z"/><path d="M420.2 63.2H133.4c-9.9 0-18 8.1-18 18s8.1 18 18 18h286.8c9.9 0 18-8.1 18-18s-8.1-18-18-18zm-99.9 157.7H167.2c-9.9 0-18 8.1-18 18v131.7c0 9.9 8.1 18 18 18h153.1c9.9 0 18-8.1 18-18V238.9c0-9.9-8.1-18-18-18zm-18 131.7H185.2v-95.7h117.1v95.7z"/></svg>