<svg xmlns="http://www.w3.org/2000/svg" viewBox="0 0 492 492"><path d="M382.4 102.1c-5.3-26.3-18.8-50.4-38.9-68.7C320 11.8 289.5 0 257.6 0c-24.6 0-48.5 7-69.1 20.3-15.8 10.2-29.1 23.8-39 39.7-3.1-.4-6.3-.6-9.5-.6-40 0-72.6 32.6-72.6 72.6 0 3.7.3 7.4.8 11-23.3 18.5-37.3 46.9-37.3 77 0 25.3 9.5 50 26.6 69.4 17.7 20 41.2 31.8 66.3 33.2h46.7c9.9 0 18-8.1 18-18s-8.1-18-18-18h-45.2c-31.7-2.1-58.4-32.5-58.4-66.7 0-22 11.8-42.6 30.9-53.7 7.6-4.4 10.8-13.6 7.8-21.8-1.4-3.9-2.2-8.1-2.2-12.5 0-20.2 16.4-36.6 36.6-36.6 4.3 0 8.5.7 12.4 2.2 8.8 3.3 18.6-.8 22.5-9.2C190 56.6 222.4 36 257.6 36c47.3 0 86.4 35.4 90.9 82.4.8 8.1 6.9 14.7 14.9 16 35.2 6 61.7 38.6 61.7 75.7 0 39.3-30.8 73.5-68.8 76.5H246c-9.9 0-18 8.1-18 18v125.9l-27.6-27.6c-7-7-18.4-7-25.5 0-7 7-7 18.4 0 25.5l58.3 58.3c3.4 3.4 8 5.3 12.7 5.3 4.8 0 9.4-1.9 12.7-5.3l58.3-58.3c7-7 7-18.4 0-25.5-7-7-18.4-7-25.5 0L264 430.5V322.6h94.3c27.8-2 53.8-14.8 73.1-36.1 19.1-21.1 29.7-48.2 29.7-76.4 0-49.8-33-94-78.7-108z"/></svg>