<svg xmlns="http://www.w3.org/2000/svg" viewBox="0 0 512 512"><path d="M461.865 199.729a16.295 16.295 0 00-18.48.929l-91.307 69.908-83.051-110.259a16.32 16.32 0 00-12.778-6.49c-4.93-.076-9.816 2.174-12.969 6.104l-88.66 110.575-85.643-69.549a16.302 16.302 0 00-18.648-1.343 16.322 16.322 0 00-7.647 17.061l28.263 147.839a16.31 16.31 0 0016.018 13.246h338.072c7.827 0 14.55-5.555 16.012-13.246l28.263-147.839a16.3 16.3 0 00-7.445-16.936zm-50.308 145.409H100.449l-17.344-90.703 63.696 51.727c3.37 2.734 7.696 3.99 12.012 3.555a16.321 16.321 0 0010.99-6.011l85.795-107.015 80.328 106.623a16.29 16.29 0 0010.816 6.348c4.326.598 8.664-.571 12.121-3.212l70.397-53.901-17.703 92.589z"/><path d="M408.73 361.444v41.851H103.27v-41.851H70.658v58.157c0 9.006 7.299 16.306 16.306 16.306h338.072c9.006 0 16.306-7.299 16.306-16.306v-58.157H408.73zM256 76.093c-29.97 0-54.352 24.383-54.352 54.352 0 29.97 24.383 54.352 54.352 54.352 29.97 0 54.352-24.383 54.352-54.352 0-29.969-24.382-54.352-54.352-54.352zm0 76.094c-11.99 0-21.741-9.751-21.741-21.741s9.751-21.741 21.741-21.741 21.741 9.751 21.741 21.741-9.751 21.741-21.741 21.741zm201.648-33.155c-29.97 0-54.352 24.382-54.352 54.352 0 29.97 24.383 54.352 54.352 54.352 29.97 0 54.352-24.383 54.352-54.352 0-29.97-24.383-54.352-54.352-54.352zm0 76.093c-11.99 0-21.741-9.751-21.741-21.741s9.751-21.741 21.741-21.741 21.741 9.751 21.741 21.741-9.751 21.741-21.741 21.741zM54.352 119.032C24.383 119.032 0 143.414 0 173.384c0 29.97 24.383 54.352 54.352 54.352 29.97 0 54.352-24.383 54.352-54.352.001-29.97-24.382-54.352-54.352-54.352zm0 76.093c-11.99 0-21.741-9.751-21.741-21.741s9.751-21.741 21.741-21.741 21.741 9.751 21.741 21.741-9.75 21.741-21.741 21.741z"/></svg>