<svg width="15" height="15" fill="none" xmlns="http://www.w3.org/2000/svg"><path d="M12.262 6.664h-.454V4.31A4.314 4.314 0 007.5 0a4.313 4.313 0 00-4.307 4.308V6.66h-.454c-.758 0-1.372.617-1.372 1.371v5.597c0 .757.617 1.371 1.372 1.371h8.314a.554.554 0 00.552-.552.554.554 0 00-.552-.553H2.74a.267.267 0 01-.267-.266V8.035c0-.147.12-.267.267-.267h9.523c.147 0 .267.12.267.267v5.597c0 .303.248.552.552.552a.554.554 0 00.553-.552V8.035c0-.757-.617-1.371-1.372-1.371zm-1.559-.003H4.298V4.308A3.205 3.205 0 017.5 1.105a3.205 3.205 0 013.204 3.203V6.66z" fill="#C4C4C4"/><path d="M8.825 10.281a.554.554 0 00-.552.553.774.774 0 11-.773-.774.554.554 0 00.552-.552.554.554 0 00-.552-.552 1.882 1.882 0 00-1.878 1.878c0 1.033.844 1.877 1.878 1.877a1.882 1.882 0 001.877-1.877.554.554 0 00-.552-.553z" fill="#C4C4C4"/></svg>