<svg xmlns="http://www.w3.org/2000/svg" xmlns:xlink="http://www.w3.org/1999/xlink"><symbol id="001-megaphone" viewBox="0 0 488.8 488.8">
<g>
	<g>
		<path d="M383.9,197.184c-9.9,0-18,8.1-18,18c0,10.4-7.3,19.1-17.1,21.2v-153.5c0-6.7-3.7-12.8-9.6-15.9
			c-5.9-3.1-13.1-2.7-18.6,1.1c-80.7,55.8-126.6,62.9-157.5,62.9h-79c-46.4,0-84.1,37.7-84.1,84.1c0,46.5,37.7,84.3,84.1,84.3h21.3
			v106.5c0,9.9,8.1,18,18,18s18-8.1,18-18v-124.5v-114.3h21.7c32.2,0,77.6-6.2,149.8-50.8v190.6c-25.8-18.4-68-39-129.4-42.9
			c-9.9-0.6-18.5,6.9-19.1,16.8c-0.6,9.9,6.9,18.5,16.8,19.1c39.7,2.5,74.5,13,103.4,31.4c21,13.3,31.1,26.1,31.7,26.9
			c3.4,4.8,8.8,7.4,14.5,7.4c1.9,0,3.7-0.3,5.6-0.9c7.4-2.4,12.4-9.4,12.4-17.2v-74.8c29.7-2.3,53.1-27.2,53.1-57.5
			C401.9,205.284,393.8,197.184,383.9,197.184z M105.4,263.384H84.1c-26.5,0-48.1-21.6-48.1-48.1c0-26.6,21.6-48.2,48.1-48.2h21.3
			V263.384z"/>
	</g>
</g>
<g>
	<g>
		<path d="M470.8,197.184h-44.7c-9.9,0-18,8.1-18,18c0,9.9,8.1,18,18,18h44.7c9.9,0,18-8.1,18-18
			C488.8,205.284,480.7,197.184,470.8,197.184z"/>
	</g>
</g>
<g>
	<g>
		<path d="M481.2,143.184c-3.1-9.3-13.4-14.4-22.8-11.2l-43.3,14.8c-9.4,3.2-14.4,13.4-11.2,22.8c2.6,7.5,9.5,12.2,17,12.2
			c1.9,0,3.9-0.3,5.8-1l43.3-14.8C479.4,162.784,484.4,152.584,481.2,143.184z"/>
	</g>
</g>
<g>
	<g>
		<path d="M470,264.384l-43.3-14.8c-9.4-3.2-19.6,1.8-22.8,11.2c-3.2,9.4,1.8,19.6,11.2,22.8l43.3,14.8c1.9,0.7,3.9,1,5.8,1
			c7.5,0,14.5-4.7,17-12.2C484.5,277.784,479.4,267.584,470,264.384z"/>
	</g>
</g>
</symbol><symbol id="002-circular" viewBox="0 0 496.247 496.247">
<g>
	<g>
		<path d="M458.946,310.606c0.4-2.6,0.7-5.1,1-7.7c0.1-0.5,0.1-1,0.1-1.5c0.1-1.2,0.2-2.4,0.3-3.6c0.1-0.6,0.1-1.2,0.1-1.9
			c0.1-1.1,0.2-2.2,0.2-3.3c0-0.6,0.1-1.3,0.1-1.9c0.1-1.2,0.1-2.3,0.1-3.5c0-0.6,0-1.1,0.1-1.7c0-1.7,0.1-3.4,0.1-5.1
			c0-65.5-29.5-126.5-81-167.1c-7.8-6.2-19.1-4.8-25.3,3c-6.2,7.8-4.8,19.1,3,25.3c42.8,33.8,67.3,84.4,67.3,138.9
			c0,1.4,0,2.8-0.1,4.3c0,0.5,0,0.9,0,1.4c0,1-0.1,1.9-0.1,2.9c0,0.5-0.1,1.1-0.1,1.6c-0.1,0.9-0.1,1.8-0.2,2.8c0,0.5-0.1,1-0.1,1.5
			c-0.1,1-0.2,2-0.3,3c0,0.3-0.1,0.6-0.1,1c-2.4-0.2-4.7-0.3-7.2-0.3c-43.8,0-79.4,35.6-79.4,79.4c0,9.9,8.1,18,18,18
			c9.9,0,18-8.1,18-18c0-23.9,19.5-43.4,43.4-43.4c23.9,0,43.4,19.5,43.4,43.4c0,23.9-19.5,43.4-43.4,43.4c-9.9,0-18,8.1-18,18
			c0,9.9,8.1,18,18,18c43.8,0,79.4-35.6,79.4-79.4C496.346,349.506,481.446,324.606,458.946,310.606z"/>
	</g>
</g>
<g>
	<g>
		<path d="M313.246,42.806c-11-18.2-28.3-31-48.9-36c-20.6-5.1-41.9-1.9-60.1,9.1s-31,28.3-36,48.9c-1.5,5.9-2.2,11.9-2.3,17.9
			c-9.2,3.9-18.2,8.5-26.8,13.7c-56.1,33.9-93,90.6-101.2,155.7c-1.1,9.8,5.9,18.8,15.7,20.1c0.8,0.1,1.5,0.1,2.3,0.1
			c8.9,0,16.7-6.7,17.8-15.7c6.8-54.1,37.5-101.3,84.1-129.4c5.3-3.2,10.7-6.1,16.2-8.7c1,2.1,2.2,4.2,3.4,6.3
			c14.9,24.7,41.2,38.4,68.1,38.4c14,0,28.1-3.7,40.9-11.4c8.5-5.1,11.2-16.2,6.1-24.7c-5.1-8.5-16.2-11.2-24.7-6.1
			c-20.5,12.4-47.2,5.8-59.6-14.7c-12.4-20.5-5.8-47.2,14.7-59.6c9.9-6,21.6-7.8,32.8-5c11.2,2.8,20.7,9.8,26.7,19.7
			c5.1,8.5,16.2,11.2,24.7,6.1C315.646,62.406,318.346,51.306,313.246,42.806z"/>
	</g>
</g>
<g>
	<g>
		<path d="M338.046,452.006c-3.8-9.2-14.3-13.6-23.5-9.8c-50.4,20.8-106.6,17.5-154.1-9.1c-0.1,0-0.1-0.1-0.2-0.1
			c-1.2-0.7-2.4-1.3-3.5-2c-0.4-0.2-0.8-0.5-1.2-0.7c-0.8-0.5-1.6-1-2.5-1.5c-0.5-0.3-0.9-0.6-1.3-0.9c-0.8-0.5-1.5-1-2.3-1.5
			c-0.4-0.3-0.9-0.6-1.3-0.9c-0.8-0.5-1.6-1.1-2.4-1.7c-0.3-0.2-0.5-0.4-0.8-0.6c1.3-2,2.6-4,3.8-6.1c21.4-38.2,7.7-86.7-30.5-108
			c-8.7-4.9-19.6-1.8-24.5,6.9c-4.9,8.7-1.8,19.6,6.9,24.5c20.9,11.7,28.3,38.2,16.7,59c-7.9,14.2-22.7,22.2-37.9,22.2
			c-7.2,0-14.4-1.8-21.1-5.5c-20.9-11.7-28.3-38.2-16.7-59c4.9-8.7,1.8-19.6-6.9-24.5c-8.7-4.9-19.6-1.8-24.5,6.9
			c-21.6,38.4-7.9,86.9,30.3,108.3c12.2,6.9,25.5,10.1,38.6,10.1c13.4,0,26.6-3.4,38.4-9.8c0.7,0.5,1.3,1,2,1.5
			c0.1,0.1,0.2,0.1,0.3,0.2c1.3,0.9,2.6,1.9,3.9,2.8c0.4,0.3,0.9,0.6,1.3,0.9c1,0.7,1.9,1.3,2.9,2c0.5,0.3,1,0.7,1.6,1
			c0.9,0.6,1.9,1.2,2.8,1.8c0.5,0.3,1.1,0.7,1.6,1c1,0.6,2,1.2,3,1.8c0.5,0.3,0.9,0.6,1.4,0.8c1.5,0.9,3,1.7,4.5,2.6
			c32.3,18.1,68,27.2,103.8,27.2c27.6,0,55.2-5.4,81.6-16.3C337.446,471.706,341.846,461.206,338.046,452.006z"/>
	</g>
</g>
</symbol><symbol id="003-piggy-bank" viewBox="0 0 492.6 492.6">
<g>
	<g>
		<path d="M256.9,59.576c-64.1,0.4-116.4,19.3-155.6,56.1c-32.8,30.8-47.7,66.9-53.6,85.6c-0.2,0.7-0.5,1.5-0.7,2.2H18
			c-9.9,0-18,8.1-18,18c0,9.9,8.1,18,18,18h43c8.8,0,16.3-6.3,17.7-15c0,0,0.9-4.8,3.3-12.3c11.1-34.8,50.3-115.8,175.1-116.6
			c9.9-0.1,17.9-8.2,17.9-18.1C275,67.576,266.8,59.576,256.9,59.576z"/>
	</g>
</g>
<g>
	<g>
		<path d="M454.3,181.376h-2.4c-10.9-26.2-28.3-50-51.1-69.7c-2.2-10,0.3-20.9,7.5-32.4c6.3-10,6.2-22.3-0.1-32.3
			c-6.3-9.9-17.5-15.2-29.2-13.7c-41.4,5.2-63.7,26.3-75,43.2c-5.6,8.2-3.4,19.4,4.9,25c8.2,5.6,19.4,3.4,25-4.9
			c8.5-12.7,21.3-21.2,37.9-25.4c-8,17.2-9.9,34.8-5.3,51.5c0.4,5,2.8,9.6,6.6,12.7c23.5,19,40.5,43,49.2,69.5
			c2.4,7.5,9.5,12.5,17.4,12.4h14.6c1.3,0,2.4,1.1,2.4,2.4v50.2c0,1.3-1.1,2.4-2.4,2.4h-14.1c-7.9,0-14.9,5.2-17.2,12.7
			c-7.7,25-22.8,48-43.8,66.7c-0.1,0.1-0.1,0.1-0.2,0.2c0,0-0.1,0-0.1,0.1c-0.8,0.7-1.6,1.4-2.4,2.1c-0.1,0.1-0.3,0.2-0.4,0.3
			c-25.8,23.4-28.4,51.2-28.6,59.1c0,0.1,0,0.3,0,0.4v9.6h-53.2v-19.1c0-5.1-2.2-10-6-13.4c-3.8-3.4-8.9-5.1-13.9-4.5
			c-7.2,0.8-14.4,1.1-21.5,1.1c-9.2,0-18.4-0.6-27.4-1.8c-5.2-0.7-10.3,0.9-14.3,4.3c-3.9,3.4-6.2,8.4-6.2,13.6v19.9h-53.3
			c-0.8-13.6-5.4-45.3-30.3-70.9c-10.9-11.3-20.7-26.1-29.1-44.3c-0.1-0.2-0.2-0.5-0.3-0.7c-4.9-9.6-8.7-19.6-11.2-29.9
			c0-0.2-0.1-0.3-0.1-0.5v-0.1c-1.1-4.4-3.9-8.4-8-11c-6.2-3.8-14.2-3.5-20.1,0.9c-5.9,4.3-8.6,11.9-6.8,19c0,0,0,0.2,0.1,0.5
			c3.2,12.8,7.9,25.4,14,37.3c10.1,21.7,22.1,39.8,35.8,53.9c16.8,17.3,19.7,39.2,20.2,48.2v4.6c0,0.4,0,0.8,0,1.1
			c0,0.6,0.1,1.3,0.1,1.9c1.5,14.7,14,26,28.8,26H212c16,0,29-13,29-29v-7.2c5.7,0.3,11.5,0.4,17.3,0.2v6.9c0,16,13,29,29,29h67.2
			c16,0,29-13,29-29v-16.4c0.1-3.5,1.5-19.1,16.6-33c0.9-0.7,1.7-1.5,2.6-2.2c0.3-0.3,0.6-0.5,0.9-0.8
			c22.1-19.8,38.9-43.7,49.3-69.8h1.3c21.1,0,38.4-17.2,38.4-38.4v-50.2C492.6,198.676,475.4,181.376,454.3,181.376z"/>
	</g>
</g>
<g>
	<g>
		<circle cx="364.5" cy="192.976" r="18.9"/>
	</g>
</g>
</symbol><symbol id="004-settings" viewBox="0 0 488.4 488.4">
<g>
	<g>
		<path d="M451.2,190.8h-15.5c-4.3-15.5-10.4-30.3-18.4-44.3l10.9-10.9c14.5-14.5,14.5-38.1,0-52.6l-22.8-22.8
			c-14.5-14.5-38.1-14.5-52.6,0l-94.1,94c-7,7-7,18.4,0,25.5c2.3,2.3,5,3.8,7.9,4.6c0.5,0.2,0.9,0.5,1.4,0.7
			c18.6,7.5,32.4,22.9,37.7,42.2c4.6,16.4,2.5,33.7-5.9,48.6c-8.4,14.9-22.1,25.6-38.5,30.1c-16.4,4.6-33.7,2.5-48.6-5.9
			c-14.9-8.4-25.6-22.1-30.1-38.5c-6.7-24.1,1.4-50,20.5-66.1c7.6-6.4,8.6-17.7,2.2-25.4c-6.4-7.6-17.7-8.6-25.4-2.2
			c-29.9,25.1-42.5,65.7-32,103.3c7.1,25.7,23.9,47.1,47.1,60.2c15.2,8.6,32,13,49,13c9,0,18-1.2,26.9-3.7
			c25.7-7.1,47.1-23.9,60.2-47.1c13.1-23.2,16.4-50.2,9.3-75.9c-6.3-22.8-20.1-42-38.9-55.1l76.7-76.7c0.5-0.5,1.2-0.5,1.7,0
			l22.8,22.8c0.5,0.5,0.5,1.2,0,1.7l-31.4,31.4l8.2,12.3c11.9,17.8,20.1,37.5,24.2,58.5l2.9,14.5h44.6c0.7,0,1.2,0.5,1.2,1.2v32.3
			c0,0.7-0.5,1.2-1.2,1.2h-44.4l-2.9,14.5c-4.2,21-12.3,40.6-24.2,58.5l-8.2,12.3l31.4,31.4c0.5,0.5,0.5,1.2,0,1.7l-22.8,22.8
			c-0.5,0.5-1.2,0.5-1.7,0L347,371.5l-12.3,8.2c-17.8,11.9-37.5,20.1-58.5,24.2l-14.5,2.9v44.4c0,0.7-0.5,1.2-1.2,1.2h-32.3
			c-0.7,0-1.2-0.5-1.2-1.2v-44.4l-14.5-2.9c-21-4.2-40.6-12.3-58.5-24.2l-12.3-8.2l-31.4,31.4c-0.5,0.5-1.2,0.5-1.7,0l-22.8-22.8
			c-0.5-0.5-0.5-1.2,0-1.7l31.4-31.4l-8.2-12.3c-11.9-17.8-20.1-37.5-24.2-58.5l-2.9-14.5H37.2c-0.7,0-1.2-0.5-1.2-1.2v-32.3
			c0-0.7,0.5-1.2,1.2-1.2h44.4l2.9-14.5c4.2-21,12.3-40.6,24.2-58.5l8.2-12.3l-31.4-31.4c-0.5-0.5-0.5-1.2,0-1.7l22.8-22.8
			c0.5-0.5,1.2-0.5,1.7,0l31.4,31.4l12.3-8.2c17.8-11.9,37.5-20.1,58.5-24.2l14.5-2.9V37.2c0-0.7,0.5-1.2,1.2-1.2h32.3
			c0.7,0,1.2,0.5,1.2,1.2v29.7c0,9.9,8.1,18,18,18c9.9,0,18-8.1,18-18V37.2c0-20.5-16.7-37.2-37.2-37.2h-32.3
			c-20.5,0-37.2,16.7-37.2,37.2v15.5c-15.5,4.3-30.3,10.4-44.3,18.4l-10.9-10.9c-14.5-14.5-38.1-14.5-52.6,0L60.1,83
			c-14.5,14.5-14.5,38.1,0,52.6L71,146.5c-7.9,14-14.1,28.8-18.4,44.3H37.2C16.7,190.8,0,207.5,0,228v32.3
			c0,20.5,16.7,37.2,37.2,37.2h15.5c4.3,15.5,10.4,30.3,18.4,44.3l-10.9,10.9c-14.5,14.5-14.5,38.1,0,52.6L83,428.1
			c14.5,14.5,38.1,14.5,52.6,0l10.9-10.9c14,7.9,28.8,14.1,44.3,18.4v15.6c0,20.5,16.7,37.2,37.2,37.2h32.3
			c20.5,0,37.2-16.7,37.2-37.2v-15.5c15.5-4.3,30.3-10.4,44.3-18.4l10.9,10.9c14.5,14.5,38.1,14.5,52.6,0l22.8-22.8
			c14.5-14.5,14.5-38.1,0-52.6l-10.9-10.9c7.9-14,14.1-28.8,18.4-44.3h15.6c20.5,0,37.2-16.7,37.2-37.2V228
			C488.4,207.5,471.7,190.8,451.2,190.8z"/>
	</g>
</g>
<g>
</g>
<g>
</g>
<g>
</g>
<g>
</g>
<g>
</g>
<g>
</g>
<g>
</g>
<g>
</g>
<g>
</g>
<g>
</g>
<g>
</g>
<g>
</g>
<g>
</g>
<g>
</g>
<g>
</g>
</symbol><symbol id="005-users" viewBox="0 0 487.4 487.4">
<g>
	<g>
		<path d="M469.9,288.8c-32.4-26.6-66.9-46-83.4-54.7v-42.4c8-8.4,12.5-19.7,12.5-31.5V98.1c0-40.8-33.2-74-74-74h-13.3
			c-40.8,0-74,33.2-74,74v62.1c0,11.9,4.5,23.1,12.5,31.5v42.4c-16.5,8.7-51.1,28.1-83.4,54.7c-11.1,9.2-17.5,22.7-17.5,37.2v101.2
			H36v-93.3c0-2,0.9-3.8,2.3-5c29.9-24.6,62.3-40.9,68.5-43.9c6.9-3.4,11.4-10.5,11.4-18.2V218c0-6-3-11.6-8-15
			c-0.7-0.4-2.2-1.7-2.2-4v-50.6c0-15.2,12.4-27.6,27.6-27.6h10.9c15.2,0,27.6,12.4,27.6,27.6V199c0,2.3-1.5,3.6-2.2,4
			c-8.3,5.5-10.5,16.7-5,25c5.5,8.3,16.7,10.5,25,5c11.4-7.6,18.2-20.3,18.2-34v-50.6c0-35.1-28.5-63.6-63.6-63.6h-10.9
			c-35.1,0-63.6,28.5-63.6,63.6V199c0,10.1,3.7,19.6,10.2,27v31.2c-14.2,7.4-41.3,22.9-66.7,43.9C5.7,309.2,0,321.2,0,334v111.3
			c0,9.9,8.1,18,18,18h149.3c9.9,0,18-8.1,18-18V326c0-3.7,1.6-7.1,4.4-9.4c37-30.4,77.2-50.7,84.9-54.5
			c7.1-3.5,11.6-10.8,11.6-18.7v-59.9c0-6-3-11.6-8-15c-2.8-1.9-4.5-5-4.5-8.3V98.1c0-20.9,17-38,38-38h13.4c20.9,0,38,17,38,38
			v62.1c0,3.3-1.7,6.5-4.5,8.3c-5,3.3-8,9-8,15v59.9c0,7.9,4.6,15.2,11.6,18.7c7.7,3.8,47.9,24,84.9,54.5c2.8,2.3,4.4,5.7,4.4,9.4
			v101.2H243.7c-9.9,0-18,8.1-18,18c0,9.9,8.1,18,18,18h225.7c9.9,0,18-8.1,18-18V326C487.4,311.5,481,298,469.9,288.8z"/>
	</g>
</g>
</symbol><symbol id="006-speech-bubble" viewBox="0 0 488 488">
<g>
	<g>
		<path d="M415.7,90.4c-46-40.3-106.9-62.5-171.7-62.5S118.3,50.1,72.3,90.4C25.7,131.3,0,185.8,0,244c0,45.9,16.7,90.9,47.2,127.8
			c-6,11.7-14.2,21-24.6,27.8c-8.6,5.6-12.7,15.7-10.4,25.7c2.2,9.9,10.2,17.1,20.2,18.5c20.6,2.9,60.8,4.3,98.1-18
			c8.5-5.1,11.3-16.2,6.2-24.7c-5.1-8.5-16.2-11.3-24.7-6.2c-15.6,9.3-32.1,13.1-46.4,14.2c8.2-9.8,14.7-21.3,19.5-34.3
			c2.4-6.4,0.9-13.5-3.6-18.5C51.7,324.1,36,285.2,36,244c0-99.3,93.3-180.1,208-180.1S452,144.7,452,244s-93.3,180.1-208,180.1
			c-16.6,0-33.2-1.7-49.2-5.1c-9.7-2.1-19.3,4.2-21.3,13.9c-2.1,9.7,4.2,19.3,13.9,21.3c18.5,3.9,37.5,5.9,56.7,5.9
			c64.7,0,125.7-22.2,171.7-62.5C462.3,356.7,488,302.2,488,244S462.3,131.3,415.7,90.4z"/>
	</g>
</g>
<g>
	<g>
		<circle cx="243.9" cy="244" r="23.6"/>
	</g>
</g>
<g>
	<g>
		<circle cx="317.5" cy="244" r="23.6"/>
	</g>
</g>
<g>
	<g>
		<circle cx="170.3" cy="244" r="23.6"/>
	</g>
</g>
</symbol><symbol id="007-book" viewBox="0 0 487.5 487.5">
<g>
	<g>
		<path d="M420.2,124.1H129.3c-24.3,0-44-19.8-44-44c0-24.2,19.8-44,44-44h290.9c9.9,0,18-8.1,18-18c0-9.9-8.1-18.1-18-18.1H129.3
			c-44.1,0-80,35.9-80,80v327.3c0,44.1,35.9,80,80,80H345c9.9,0,18-8.1,18-18c0-9.9-8.1-18-18-18H129.3c-24.3,0-44-19.8-44-44V146.9
			c12.6,8.4,27.8,13.3,44,13.3h272.9v309.3c0,9.9,8.1,18,18,18c9.9,0,18-8.1,18-18V142.1C438.2,132.2,430.1,124.1,420.2,124.1z"/>
	</g>
</g>
<g>
	<g>
		<path d="M420.2,63.2H133.4c-9.9,0-18,8.1-18,18s8.1,18,18,18h286.8c9.9,0,18-8.1,18-18S430.1,63.2,420.2,63.2z"/>
	</g>
</g>
<g>
	<g>
		<path d="M320.3,220.9H167.2c-9.9,0-18,8.1-18,18v131.7c0,9.9,8.1,18,18,18h153.1c9.9,0,18-8.1,18-18V238.9
			C338.3,229,330.2,220.9,320.3,220.9z M302.3,352.6h-0.1h-117v-95.7h117.1V352.6z"/>
	</g>
</g>
</symbol><symbol id="008-padlock" viewBox="0 0 488.9 488.9">
<g>
	<g>
		<path d="M399.65,217.2h-14.8v-76.7c0-77.5-63-140.5-140.4-140.5s-140.4,63-140.4,140.4v76.7h-14.8c-24.7,0-44.7,20.1-44.7,44.7
			v182.4c0,24.7,20.1,44.7,44.7,44.7h271c9.9,0,18-8.1,18-18c0-9.9-8.1-18-18-18h-271c-4.8,0-8.7-3.9-8.7-8.7V261.9
			c0-4.8,3.9-8.7,8.7-8.7h310.4c4.8,0,8.7,3.9,8.7,8.7v182.4c0,9.9,8.1,18,18,18c9.9,0,18-8.1,18-18V261.9
			C444.35,237.2,424.25,217.2,399.65,217.2z M348.85,217.1h-208.8v-76.7c0-57.6,46.8-104.4,104.4-104.4s104.4,46.8,104.4,104.4
			V217.1z"/>
	</g>
</g>
<g>
	<g>
		<path d="M287.65,335.1c-9.9,0-18,8.1-18,18c0,13.9-11.3,25.2-25.2,25.2s-25.2-11.3-25.2-25.2s11.3-25.2,25.2-25.2
			c9.9,0,18-8.1,18-18c0-9.9-8.1-18-18-18c-33.7,0-61.2,27.5-61.2,61.2s27.5,61.2,61.2,61.2s61.2-27.5,61.2-61.2
			C305.65,343.2,297.55,335.1,287.65,335.1z"/>
	</g>
</g>
<g>
</g>
<g>
</g>
<g>
</g>
<g>
</g>
<g>
</g>
<g>
</g>
<g>
</g>
<g>
</g>
<g>
</g>
<g>
</g>
<g>
</g>
<g>
</g>
<g>
</g>
<g>
</g>
<g>
</g>
</symbol><symbol id="009-cloud-computing" viewBox="0 0 492 492">
<g>
	<g>
		<path d="M382.4,102.1c-5.3-26.3-18.8-50.4-38.9-68.7C320,11.8,289.5,0,257.6,0c-24.6,0-48.5,7-69.1,20.3
			c-15.8,10.2-29.1,23.8-39,39.7c-3.1-0.4-6.3-0.6-9.5-0.6c-40,0-72.6,32.6-72.6,72.6c0,3.7,0.3,7.4,0.8,11
			c-23.3,18.5-37.3,46.9-37.3,77c0,25.3,9.5,50,26.6,69.4c17.7,20,41.2,31.8,66.3,33.2c0.3,0,0.7,0,1,0h45.7c9.9,0,18-8.1,18-18
			c0-9.9-8.1-18-18-18h-45.2c-31.7-2.1-58.4-32.5-58.4-66.7c0-22,11.8-42.6,30.9-53.7c7.6-4.4,10.8-13.6,7.8-21.8
			c-1.4-3.9-2.2-8.1-2.2-12.5c0-20.2,16.4-36.6,36.6-36.6c4.3,0,8.5,0.7,12.4,2.2c8.8,3.3,18.6-0.8,22.5-9.2
			C190,56.6,222.4,36,257.6,36c47.3,0,86.4,35.4,90.9,82.4c0.8,8.1,6.9,14.7,14.9,16c35.2,6,61.7,38.6,61.7,75.7
			c0,39.3-30.8,73.5-68.8,76.5H246c-9.9,0-18,8.1-18,18v125.9l-27.6-27.6c-7-7-18.4-7-25.5,0c-7,7-7,18.4,0,25.5l58.3,58.3
			c3.4,3.4,8,5.3,12.7,5.3c4.8,0,9.4-1.9,12.7-5.3l58.3-58.3c7-7,7-18.4,0-25.5c-7-7-18.4-7-25.5,0L264,430.5V322.6h93
			c0.4,0,0.8,0,1.3,0c27.8-2,53.8-14.8,73.1-36.1c19.1-21.1,29.7-48.2,29.7-76.4C461.1,160.3,428.1,116.1,382.4,102.1z"/>
	</g>
</g>
</symbol><symbol id="010-alarm" viewBox="0 0 488.124 488.124">
<g>
	<g>
		<path d="M439.248,383.124c-4.1-6.3-8.3-12.4-12.5-18.3c-3.1-4.5-6.1-8.7-9-13c-1.5-2.3-3-4.5-4.5-6.7
			c-7.8-11.7-15.9-23.8-23.3-35.9c-13-21.2-20.5-44.1-23-70.1c-1.8-19.1-4.5-38.1-8.2-56.5c-5.1-25.7-16.6-46-34.2-60.3
			c-20-16.5-45.8-22-72.8-15.6c-15.8,3.8-32-2.3-39.4-14.7c-3.6-6-5.4-12.9-5.2-20c0.5-19.3,16.7-35.4,36-36
			c15.7-0.4,30.1,9.2,35.7,23.9c3.5,9.3,13.9,14,23.2,10.4c9.3-3.5,14-13.9,10.4-23.2c-11-29-39.3-47.9-70.4-47.1
			c-18.5,0.5-36.1,8.2-49.4,21.5c-13.4,13.4-21,30.9-21.5,49.4c-0.4,13.9,3.2,27.6,10.3,39.5c15.7,26.2,47.3,38.7,78.7,31.2
			c11.2-2.7,27.4-3.4,41.6,8.3c0,0,0.1,0,0.1,0.1c11.1,9.1,18.2,22,21.7,39.5c3.4,17.2,6,34.9,7.7,52.8
			c2.9,31.1,12.4,59.9,28.1,85.6c7.8,12.6,16.1,25,24.1,37c1.5,2.2,3,4.5,4.5,6.7c3.1,4.7,6.4,9.3,9.5,13.7c4.1,5.8,8,11.4,11.6,17
			c1.5,2.3,3.9,6.6,3.4,9.5c-0.4,2.2-2.6,5.3-6.4,8.5c-7.7,6.6-17.8,10.5-27.7,13.6c-31.5,10.1-66.5,15.8-110.4,17.9h-47.7
			c-43.8-2-78.9-7.7-110.4-17.9c-9.8-3.2-20-7-27.7-13.6c-3.8-3.3-6-6.3-6.4-8.5c-0.5-2.9,2-7.2,3.4-9.5c3.7-5.7,7.5-11.2,11.6-17
			c3.1-4.4,6.4-9,9.5-13.7c1.5-2.2,3-4.5,4.5-6.7c8-12,16.3-24.4,24.1-37c15.8-25.6,25.2-54.4,28.1-85.6c1.7-17.9,4.2-35.6,7.7-52.8
			c1.4-7.2,3.5-13.7,6.2-19.4c4.2-9,0.4-19.7-8.6-24c-9-4.2-19.7-0.4-24,8.6c-3.9,8.3-7,17.7-9,27.7c-3.7,18.4-6.4,37.4-8.2,56.5
			c-2.4,25.9-9.9,48.9-23,70.1c-7.4,12.1-15.5,24.2-23.3,35.9c-1.5,2.2-3,4.5-4.5,6.7c-2.9,4.3-5.9,8.5-9,13
			c-4.1,5.9-8.4,12-12.5,18.3c-14.8,23.6-11.4,46.6,9.9,64.9c12.5,10.8,26.7,16.3,40.2,20.7c34.7,11.2,72.9,17.4,120.2,19.6
			c0.3,0,0.6,0,0.8,0h48.5c0.3,0,0.6,0,0.8,0c47.3-2.2,85.5-8.4,120.2-19.6c13.5-4.3,27.7-9.8,40.2-20.7
			C450.748,429.424,454.248,406.424,439.248,383.124z"/>
	</g>
</g>
</symbol><symbol id="king" viewBox="0 0 512 512">
<g>
	<g>
		<path d="M461.865,199.729c-5.745-3.555-13.099-3.19-18.48,0.929l-91.307,69.908l-83.051-110.259
			c-3.033-4.017-7.745-6.414-12.778-6.49c-4.93-0.076-9.816,2.174-12.969,6.104l-88.66,110.575l-85.643-69.549
			c-5.316-4.321-12.767-4.859-18.648-1.343c-5.875,3.517-8.93,10.332-7.647,17.061l28.263,147.839
			c1.473,7.691,8.196,13.246,16.018,13.246h338.072c7.827,0,14.55-5.555,16.012-13.246l28.263-147.839
			C470.583,210.023,467.621,203.284,461.865,199.729z M411.557,345.138H100.449l-17.344-90.703l63.696,51.727
			c3.37,2.734,7.696,3.99,12.012,3.555c4.316-0.462,8.272-2.625,10.99-6.011l85.795-107.015l80.328,106.623
			c2.614,3.473,6.506,5.761,10.816,6.348c4.326,0.598,8.664-0.571,12.121-3.212l70.397-53.901L411.557,345.138z"/>
	</g>
</g>
<g>
	<g>
		<path d="M408.73,361.444v41.851H103.27v-41.851H70.658v58.157c0,9.006,7.299,16.306,16.306,16.306h338.072
			c9.006,0,16.306-7.299,16.306-16.306v-58.157H408.73z"/>
	</g>
</g>
<g>
	<g>
		<path d="M256,76.093c-29.97,0-54.352,24.383-54.352,54.352c0,29.97,24.383,54.352,54.352,54.352
			c29.97,0,54.352-24.383,54.352-54.352C310.352,100.476,285.97,76.093,256,76.093z M256,152.187
			c-11.99,0-21.741-9.751-21.741-21.741c0-11.99,9.751-21.741,21.741-21.741s21.741,9.751,21.741,21.741
			C277.741,142.436,267.99,152.187,256,152.187z"/>
	</g>
</g>
<g>
	<g>
		<path d="M457.648,119.032c-29.97,0-54.352,24.382-54.352,54.352c0,29.97,24.383,54.352,54.352,54.352
			c29.97,0,54.352-24.383,54.352-54.352C512,143.414,487.617,119.032,457.648,119.032z M457.648,195.125
			c-11.99,0-21.741-9.751-21.741-21.741c0-11.99,9.751-21.741,21.741-21.741s21.741,9.751,21.741,21.741
			C479.389,185.374,469.638,195.125,457.648,195.125z"/>
	</g>
</g>
<g>
	<g>
		<path d="M54.352,119.032C24.383,119.032,0,143.414,0,173.384c0,29.97,24.383,54.352,54.352,54.352
			c29.97,0,54.352-24.383,54.352-54.352C108.705,143.414,84.322,119.032,54.352,119.032z M54.352,195.125
			c-11.99,0-21.741-9.751-21.741-21.741c0-11.99,9.751-21.741,21.741-21.741c11.99,0,21.741,9.751,21.741,21.741
			C76.093,185.374,66.343,195.125,54.352,195.125z"/>
	</g>
</g>
</symbol><symbol id="lock" viewBox="0 0 15 15">
<path d="M12.2621 6.66394H11.808V4.3107C11.808 1.93291 9.87506 0 7.50034 0C5.12562 0 3.19271 1.93291 3.19271 4.30763V6.66087H2.73863C1.98081 6.66087 1.36719 7.27756 1.36719 8.03232V13.6286C1.36719 14.3864 1.98388 15 2.73863 15H11.0532C11.357 15 11.6055 14.7515 11.6055 14.4477C11.6055 14.144 11.357 13.8955 11.0532 13.8955H2.73863C2.59136 13.8955 2.47171 13.7758 2.47171 13.6286V8.03539C2.47171 7.88812 2.59136 7.76846 2.73863 7.76846H12.2621C12.4093 7.76846 12.529 7.88812 12.529 8.03539V13.6316C12.529 13.9354 12.7775 14.1839 13.0812 14.1839C13.385 14.1839 13.6335 13.9354 13.6335 13.6316V8.03539C13.6335 7.27756 13.0168 6.66394 12.2621 6.66394ZM10.7035 6.66087H4.29723V4.30763C4.29723 2.5404 5.73311 1.10452 7.50034 1.10452C9.26758 1.10452 10.7035 2.5404 10.7035 4.30763V6.66087Z" fill="#C4C4C4"/>
<path d="M8.82518 10.2812C8.52144 10.2812 8.27292 10.5298 8.27292 10.8335C8.27292 11.26 7.92622 11.6067 7.49975 11.6067C7.07329 11.6067 6.72659 11.26 6.72659 10.8335C6.72659 10.407 7.07329 10.0603 7.49975 10.0603C7.8035 10.0603 8.05202 9.81181 8.05202 9.50807C8.05202 9.20433 7.8035 8.95581 7.49975 8.95581C6.4658 8.95581 5.62207 9.79954 5.62207 10.8335C5.62207 11.8674 6.4658 12.7112 7.49975 12.7112C8.53371 12.7112 9.37744 11.8674 9.37744 10.8335C9.37744 10.5298 9.12892 10.2812 8.82518 10.2812Z" fill="#C4C4C4"/>
</symbol></svg>