<svg xmlns="http://www.w3.org/2000/svg" version="1.1" xmlns:xlink="http://www.w3.org/1999/xlink" xmlns:svgjs="http://svgjs.com/svgjs" width="1000" height="1000"><rect width="1000" height="1000" rx="150" ry="150" fill="#707070"></rect><g transform="matrix(30,0,0,30,50,50)"><svg xmlns="http://www.w3.org/2000/svg" version="1.1" xmlns:xlink="http://www.w3.org/1999/xlink" xmlns:svgjs="http://svgjs.com/svgjs" width="30" height="30"><svg width="30" height="30" viewBox="0 0 30 30" fill="none" xmlns="http://www.w3.org/2000/svg">
<path d="M27.715 11.7199H26.7629C26.4988 10.7678 26.1241 9.85872 25.6327 8.99877L26.3022 8.32924C27.1929 7.43858 27.1929 5.98894 26.3022 5.09828L24.9017 3.69779C24.0111 2.80713 22.5614 2.80713 21.6708 3.69779L15.8907 9.47174C15.4607 9.90172 15.4607 10.602 15.8907 11.0381C16.0319 11.1794 16.1978 11.2715 16.3759 11.3206C16.4066 11.3329 16.4312 11.3514 16.4619 11.3636C17.6044 11.8243 18.4521 12.7703 18.7776 13.9558C19.0602 14.9631 18.9312 16.0258 18.4152 16.941C17.8993 17.8563 17.0577 18.5135 16.0504 18.7899C15.043 19.0725 13.9803 18.9435 13.0651 18.4275C12.1499 17.9115 11.4926 17.07 11.2162 16.0627C10.8047 14.5823 11.3022 12.9914 12.4754 12.0025C12.9423 11.6093 13.0037 10.9152 12.6106 10.4423C12.2174 9.97543 11.5233 9.91401 11.0504 10.3071C9.21376 11.8489 8.4398 14.3428 9.08477 16.6523C9.52088 18.231 10.5528 19.5455 11.9779 20.3501C12.9115 20.8784 13.9435 21.1486 14.9877 21.1486C15.5405 21.1486 16.0934 21.0749 16.64 20.9214C18.2187 20.4853 19.5332 19.4533 20.3378 18.0283C21.1425 16.6032 21.3452 14.9447 20.9091 13.3661C20.5221 11.9656 19.6744 10.7862 18.5197 9.98157L23.231 5.27027C23.2617 5.23956 23.3047 5.23956 23.3354 5.27027L24.7359 6.67076C24.7666 6.70147 24.7666 6.74447 24.7359 6.77518L22.8071 8.70393L23.3108 9.45946C24.0418 10.5528 24.5455 11.7629 24.7973 13.0528L24.9754 13.9435H27.715C27.758 13.9435 27.7887 13.9742 27.7887 14.0172V16.0012C27.7887 16.0442 27.758 16.0749 27.715 16.0749H24.9877L24.8096 16.9656C24.5516 18.2555 24.0541 19.4595 23.3231 20.559L22.8194 21.3145L24.7482 23.2432C24.7789 23.274 24.7789 23.317 24.7482 23.3477L23.3477 24.7482C23.317 24.7789 23.274 24.7789 23.2432 24.7482L21.3145 22.8194L20.559 23.3231C19.4656 24.0541 18.2555 24.5577 16.9656 24.8096L16.0749 24.9877V27.715C16.0749 27.758 16.0442 27.7887 16.0012 27.7887H14.0172C13.9742 27.7887 13.9435 27.758 13.9435 27.715V24.9877L13.0528 24.8096C11.7629 24.5516 10.559 24.0541 9.45946 23.3231L8.70393 22.8194L6.77518 24.7482C6.74447 24.7789 6.70147 24.7789 6.67076 24.7482L5.27027 23.3477C5.23956 23.317 5.23956 23.274 5.27027 23.2432L7.19902 21.3145L6.69533 20.559C5.96437 19.4656 5.46069 18.2555 5.20885 16.9656L5.03071 16.0749H2.28501C2.24201 16.0749 2.2113 16.0442 2.2113 16.0012V14.0172C2.2113 13.9742 2.24201 13.9435 2.28501 13.9435H5.01229L5.19042 13.0528C5.4484 11.7629 5.94595 10.559 6.6769 9.45946L7.18059 8.70393L5.25184 6.77518C5.22113 6.74447 5.22113 6.70147 5.25184 6.67076L6.65233 5.27027C6.68305 5.23956 6.72604 5.23956 6.75676 5.27027L8.6855 7.19902L9.44103 6.69533C10.5344 5.96437 11.7445 5.46069 13.0344 5.20885L13.9251 5.03071V2.28501C13.9251 2.24201 13.9558 2.2113 13.9988 2.2113H15.9828C16.0258 2.2113 16.0565 2.24201 16.0565 2.28501V4.10934C16.0565 4.71744 16.5541 5.21499 17.1622 5.21499C17.7703 5.21499 18.2678 4.71744 18.2678 4.10934V2.28501C18.2678 1.0258 17.242 0 15.9828 0H13.9988C12.7396 0 11.7138 1.0258 11.7138 2.28501V3.2371C10.7617 3.50123 9.85258 3.87592 8.99263 4.36732L8.3231 3.69779C7.43243 2.80713 5.9828 2.80713 5.09214 3.69779L3.69165 5.09828C2.80098 5.98894 2.80098 7.43858 3.69165 8.32924L4.36118 8.99877C3.87592 9.85872 3.49509 10.7678 3.23096 11.7199H2.28501C1.0258 11.7199 0 12.7457 0 14.0049V15.9889C0 17.2482 1.0258 18.274 2.28501 18.274H3.2371C3.50123 19.226 3.87592 20.1351 4.36732 20.9951L3.69779 21.6646C2.80713 22.5553 2.80713 24.0049 3.69779 24.8956L5.09828 26.2961C5.98894 27.1867 7.43858 27.1867 8.32924 26.2961L8.99877 25.6265C9.85872 26.1118 10.7678 26.4926 11.7199 26.7568V27.715C11.7199 28.9742 12.7457 30 14.0049 30H15.9889C17.2482 30 18.274 28.9742 18.274 27.715V26.7629C19.226 26.4988 20.1351 26.1241 20.9951 25.6327L21.6646 26.3022C22.5553 27.1929 24.0049 27.1929 24.8956 26.3022L26.2961 24.9017C27.1867 24.0111 27.1867 22.5614 26.2961 21.6708L25.6265 21.0012C26.1118 20.1413 26.4926 19.2322 26.7568 18.2801H27.715C28.9742 18.2801 30 17.2543 30 15.9951V14.0049C30 12.7457 28.9742 11.7199 27.715 11.7199Z" fill="#E5E5E5"></path>
</svg></svg></g></svg>