<svg width="143" height="27" viewBox="0 0 143 27" fill="none" xmlns="http://www.w3.org/2000/svg">
<path d="M25.796 7.76C25.6093 8.432 25.3013 9.05733 24.872 9.636C24.4613 10.196 23.9667 10.7187 23.388 11.204C22.828 11.6893 22.2027 12.128 21.512 12.52C20.84 12.912 20.14 13.2573 19.412 13.556C20.3453 13.5933 21.204 13.752 21.988 14.032C22.772 14.2933 23.4253 14.6573 23.948 15.124C24.4707 15.572 24.8253 16.0947 25.012 16.692C25.2173 17.2893 25.2173 17.9333 25.012 18.624C24.8067 19.3147 24.3587 20.0333 23.668 20.78C22.996 21.5267 22.044 22.2733 20.812 23.02C19.6733 23.692 18.3013 24.2613 16.696 24.728C15.0907 25.2133 13.42 25.596 11.684 25.876C9.96667 26.156 8.25867 26.352 6.56 26.464C4.86133 26.576 3.35867 26.6133 2.052 26.576C1.94 26.576 1.80933 26.464 1.66 26.24C1.52933 26.016 1.39867 25.7453 1.268 25.428C1.13733 25.1293 1.02533 24.812 0.932 24.476C0.838667 24.1587 0.773333 23.8973 0.736 23.692C0.698667 23.4493 0.717333 23.1787 0.792 22.88C0.866667 22.5813 1.044 22.2733 1.324 21.956C1.62267 21.62 2.04267 21.284 2.584 20.948C3.144 20.5933 3.872 20.2573 4.768 19.94C4.80533 19.9213 4.74933 20.052 4.6 20.332C4.45067 20.5933 4.30133 20.892 4.152 21.228C4.00267 21.564 3.89067 21.872 3.816 22.152C3.76 22.432 3.83467 22.5813 4.04 22.6C4.35733 22.6187 4.712 22.628 5.104 22.628C5.496 22.6093 5.85067 22.5907 6.168 22.572C6.42933 21.4333 6.784 20.2013 7.232 18.876C7.68 17.5507 8.184 16.2253 8.744 14.9C9.304 13.556 9.90133 12.2493 10.536 10.98C11.1707 9.71067 11.8147 8.55333 12.468 7.508C12.7853 6.98533 13.1493 6.57467 13.56 6.276C13.9707 5.97733 14.4187 5.744 14.904 5.576C15.408 5.408 15.9307 5.28667 16.472 5.212C17.032 5.13733 17.6107 5.06267 18.208 4.988C17.4987 6.052 16.7893 7.2 16.08 8.432C15.3707 9.664 14.6893 10.952 14.036 12.296C14.7827 12.1093 15.66 11.8107 16.668 11.4C17.676 10.9893 18.656 10.5133 19.608 9.972C20.56 9.412 21.4187 8.824 22.184 8.208C22.968 7.57333 23.5093 6.93867 23.808 6.304C24.0693 5.744 24.144 5.296 24.032 4.96C23.92 4.60533 23.696 4.32533 23.36 4.12C23.0427 3.896 22.632 3.74667 22.128 3.672C21.6427 3.57867 21.148 3.52267 20.644 3.504C20.1587 3.48533 19.692 3.49467 19.244 3.532C18.8147 3.55067 18.4787 3.56933 18.236 3.588C17.5267 3.644 16.7053 3.77467 15.772 3.98C14.8573 4.18533 13.896 4.456 12.888 4.792C11.88 5.10933 10.8533 5.48267 9.808 5.912C8.76267 6.32267 7.764 6.78 6.812 7.284C5.86 7.76933 4.97333 8.292 4.152 8.852C3.34933 9.39333 2.668 9.944 2.108 10.504C2.36933 10.0373 2.56533 9.468 2.696 8.796C2.82667 8.124 2.98533 7.452 3.172 6.78C3.37733 6.08933 3.65733 5.44533 4.012 4.848C4.36667 4.25067 4.88 3.784 5.552 3.448C6.224 3.112 7.064 2.79467 8.072 2.496C9.09867 2.17867 10.2 1.908 11.376 1.684C12.5707 1.44133 13.7933 1.264 15.044 1.152C16.3133 1.02133 17.536 0.983999 18.712 1.04C19.9067 1.07733 21.008 1.22667 22.016 1.488C23.024 1.74933 23.864 2.15067 24.536 2.692C25.208 3.21467 25.6653 3.896 25.908 4.736C26.1693 5.55733 26.132 6.56533 25.796 7.76ZM22.184 18.064C22.464 17.5787 22.548 17.1587 22.436 16.804C22.3427 16.4307 22.1187 16.1227 21.764 15.88C21.4093 15.6373 20.9427 15.4507 20.364 15.32C19.804 15.1707 19.1787 15.0773 18.488 15.04C17.7973 14.984 17.0693 14.984 16.304 15.04C15.5573 15.0773 14.82 15.152 14.092 15.264C13.7933 15.3387 13.5133 15.404 13.252 15.46C12.9907 15.516 12.7573 15.5627 12.552 15.6C11.6187 17.8587 10.8533 20.08 10.256 22.264C11.4133 22.1147 12.6267 21.9187 13.896 21.676C15.1653 21.4333 16.36 21.144 17.48 20.808C18.6 20.4533 19.58 20.052 20.42 19.604C21.2787 19.156 21.8667 18.6427 22.184 18.064ZM31.6729 20.444C31.7476 20.3693 31.8409 20.2947 31.9529 20.22C32.5876 19.7533 33.2223 19.2773 33.8569 18.792C34.5103 18.288 35.1449 17.7933 35.7609 17.308V19.436C35.5556 19.604 35.3876 19.744 35.2569 19.856C35.1263 19.9493 34.9396 20.108 34.6969 20.332C34.3049 20.6867 33.8569 21.0787 33.3529 21.508C32.8676 21.9187 32.3636 22.3107 31.8409 22.684C31.3183 23.0387 30.8049 23.3467 30.3009 23.608C29.7969 23.8507 29.3396 23.9813 28.9289 24H28.6209C28.4156 23.9627 28.1263 23.888 27.7529 23.776C27.3983 23.664 27.0343 23.5613 26.6609 23.468C26.5116 23.4307 26.3903 23.384 26.2969 23.328C26.2036 23.272 26.1289 23.1693 26.0729 23.02C25.9796 22.8707 25.9423 22.6933 25.9609 22.488C25.9609 22.2827 25.9703 22.1053 25.9889 21.956C26.0263 21.7133 26.0729 21.4613 26.1289 21.2C26.2036 20.9387 26.2876 20.6493 26.3809 20.332C26.4183 20.2013 26.4463 20.08 26.4649 19.968C26.5023 19.8373 26.5396 19.7067 26.5769 19.576C26.6143 19.5013 26.6516 19.3893 26.6889 19.24L26.8289 18.736C26.9969 18.176 27.2489 17.4387 27.5849 16.524C27.9396 15.5907 28.3409 14.592 28.7889 13.528C29.2556 12.4453 29.7503 11.3347 30.2729 10.196C30.7956 9.05733 31.3089 7.97467 31.8129 6.948C32.3169 5.90267 32.7929 4.97867 33.2409 4.176C33.7076 3.35467 34.1089 2.72933 34.4449 2.3L34.7249 2.384C34.9676 2.496 35.2289 2.51467 35.5089 2.44C35.8076 2.36533 36.1249 2.28133 36.4609 2.188C36.7969 2.09467 37.1703 2.048 37.5809 2.048C38.0103 2.02933 38.4956 2.14133 39.0369 2.384C38.5703 2.90667 38.0476 3.63467 37.4689 4.568C36.9089 5.48267 36.3209 6.50933 35.7049 7.648C35.1076 8.768 34.5103 9.95333 33.9129 11.204C33.3343 12.436 32.7836 13.6493 32.2609 14.844C31.7569 16.02 31.3089 17.1213 30.9169 18.148C30.5436 19.1747 30.2729 20.0333 30.1049 20.724C30.1049 20.9107 30.1516 21.0227 30.2449 21.06C30.3943 21.1533 30.5903 21.1347 30.8329 21.004C31.0756 20.8547 31.3556 20.668 31.6729 20.444ZM45.3024 20.332C45.7504 19.996 46.1517 19.6973 46.5064 19.436C46.8797 19.156 47.2344 18.8853 47.5704 18.624C47.9064 18.3627 48.2424 18.1013 48.5784 17.84C48.933 17.56 49.3064 17.2613 49.6984 16.944V18.792L49.5864 18.904C49.4557 18.9973 49.297 19.1187 49.1104 19.268C48.9237 19.4173 48.681 19.6227 48.3824 19.884C48.2517 19.9773 48.065 20.136 47.8224 20.36C47.3744 20.752 46.8704 21.1813 46.3104 21.648C45.769 22.096 45.209 22.516 44.6304 22.908C44.0704 23.2813 43.5197 23.58 42.9784 23.804C42.4557 24.0093 41.989 24.056 41.5784 23.944L39.7584 23.412C39.7397 23.412 39.721 23.412 39.7024 23.412C39.7024 23.3933 39.6837 23.384 39.6464 23.384C39.4037 23.2533 39.273 23.0573 39.2544 22.796C39.217 22.6093 39.1984 22.46 39.1984 22.348C39.217 22.236 39.2357 22.0773 39.2544 21.872C39.0304 22.04 38.7877 22.2267 38.5264 22.432C38.265 22.6187 37.9944 22.8053 37.7144 22.992C37.4344 23.1787 37.1637 23.3467 36.9024 23.496C36.641 23.6453 36.4077 23.7573 36.2024 23.832C36.0344 23.888 35.829 23.916 35.5864 23.916C35.3437 23.8973 35.0917 23.8693 34.8304 23.832C34.737 23.8133 34.6157 23.776 34.4664 23.72C34.317 23.664 34.1584 23.5987 33.9904 23.524C33.8224 23.4493 33.6544 23.384 33.4864 23.328C33.337 23.2533 33.2157 23.188 33.1224 23.132C32.9357 23.02 32.805 22.8893 32.7304 22.74C32.637 22.5907 32.581 22.432 32.5624 22.264C32.5437 22.0773 32.553 21.8907 32.5904 21.704C32.609 21.5173 32.637 21.3307 32.6744 21.144C32.749 20.752 32.889 20.2293 33.0944 19.576C33.2997 18.904 33.5424 18.1947 33.8224 17.448C34.121 16.6827 34.4477 15.908 34.8024 15.124C35.1757 14.3213 35.5584 13.584 35.9504 12.912C36.3424 12.24 36.7344 11.6707 37.1264 11.204C37.5184 10.7187 37.901 10.4107 38.2744 10.28C38.6104 10.1493 38.993 10.1027 39.4224 10.14C39.8704 10.1587 40.309 10.252 40.7384 10.42C41.1677 10.5693 41.569 10.784 41.9424 11.064C42.3344 11.344 42.6424 11.68 42.8664 12.072C42.9224 11.96 42.9877 11.8293 43.0624 11.68C43.1557 11.5307 43.2397 11.3813 43.3144 11.232C43.389 11.0827 43.4544 10.952 43.5104 10.84C43.5664 10.728 43.5944 10.6627 43.5944 10.644L43.6504 10.56H43.7344C43.9024 10.5973 44.089 10.5973 44.2944 10.56C44.5184 10.5227 44.7517 10.4667 44.9944 10.392C45.4237 10.28 45.8437 10.1773 46.2544 10.084C46.665 9.972 47.141 10.0187 47.6824 10.224L47.8224 10.28L47.7664 10.42C47.7664 10.4387 47.757 10.4667 47.7384 10.504C47.7197 10.5413 47.701 10.5693 47.6824 10.588C47.6637 10.6067 47.645 10.6347 47.6264 10.672C47.477 10.9333 47.2717 11.344 47.0104 11.904C46.749 12.4453 46.4597 13.0707 46.1424 13.78C45.825 14.4707 45.4984 15.1987 45.1624 15.964C44.8264 16.7293 44.5184 17.4573 44.2384 18.148C44.0704 18.5587 43.921 18.9413 43.7904 19.296C43.6784 19.6507 43.5944 19.968 43.5384 20.248C43.4264 20.7707 43.445 21.0787 43.5944 21.172C43.7624 21.2653 43.9584 21.2373 44.1824 21.088C44.425 20.9387 44.705 20.752 45.0224 20.528C45.0597 20.4907 45.1064 20.4627 45.1624 20.444C45.2184 20.4067 45.265 20.3693 45.3024 20.332ZM40.7944 16.832C41.0744 16.1413 41.3077 15.572 41.4944 15.124C41.681 14.6573 41.905 14.144 42.1664 13.584C41.905 13.3227 41.6717 13.136 41.4664 13.024C41.2797 12.912 41.1024 12.856 40.9344 12.856C40.785 12.856 40.6357 12.9213 40.4864 13.052C40.3557 13.164 40.225 13.3133 40.0944 13.5C39.9637 13.6867 39.8517 13.8453 39.7584 13.976C39.665 14.1067 39.5717 14.2373 39.4784 14.368C39.4037 14.48 39.329 14.6107 39.2544 14.76C39.1797 14.8907 39.0864 15.0587 38.9744 15.264C38.5077 16.1413 38.069 17.0653 37.6584 18.036C37.2477 19.0067 36.921 19.9027 36.6784 20.724C36.585 21.0787 36.613 21.3213 36.7624 21.452C36.9117 21.564 37.145 21.5173 37.4624 21.312C37.6304 21.2 37.8077 21.0787 37.9944 20.948C38.1997 20.7987 38.405 20.6493 38.6104 20.5C38.8344 20.3507 39.0397 20.2013 39.2264 20.052C39.4317 19.884 39.609 19.744 39.7584 19.632C39.7957 19.576 39.833 19.4733 39.8704 19.324C39.9264 19.156 39.9637 19.044 39.9824 18.988C40.113 18.6333 40.2437 18.2787 40.3744 17.924C40.505 17.5693 40.645 17.2053 40.7944 16.832ZM52.8514 21.676C53.2994 21.676 53.8594 21.5173 54.5314 21.2C55.2034 20.864 55.9128 20.4627 56.6594 19.996C57.4061 19.5107 58.1434 19.0067 58.8714 18.484C59.5994 17.9613 60.2341 17.4853 60.7754 17.056V19.492L60.3274 19.772C59.7861 20.1453 59.1608 20.584 58.4514 21.088C57.7608 21.5733 57.0328 22.04 56.2674 22.488C55.5208 22.9173 54.7648 23.2907 53.9994 23.608C53.2528 23.9067 52.5434 24.0373 51.8714 24C50.6208 23.944 49.6501 23.664 48.9594 23.16C48.2688 22.6373 47.7834 21.9933 47.5034 21.228C47.2234 20.444 47.1301 19.576 47.2234 18.624C47.3168 17.672 47.5221 16.7387 47.8394 15.824C48.1754 14.8907 48.5954 14.0227 49.0994 13.22C49.6034 12.4173 50.1354 11.7733 50.6954 11.288C51.1434 10.896 51.6194 10.5973 52.1234 10.392C52.6274 10.168 53.1314 10.028 53.6354 9.972C54.1394 9.916 54.6341 9.93467 55.1194 10.028C55.6048 10.1027 56.0434 10.2427 56.4354 10.448C56.9208 10.7093 57.2941 11.064 57.5554 11.512C57.8168 11.9413 57.9754 12.4173 58.0314 12.94C58.1061 13.4627 58.0874 13.9853 57.9754 14.508C57.8634 15.0307 57.6768 15.4973 57.4154 15.908L54.8394 15.852C55.4554 15.2733 55.8381 14.7227 55.9874 14.2C56.1368 13.6773 56.1274 13.248 55.9594 12.912C55.7914 12.576 55.5208 12.38 55.1474 12.324C54.7741 12.2493 54.3821 12.38 53.9714 12.716C53.5421 13.0707 53.0848 13.584 52.5994 14.256C52.1328 14.928 51.7314 15.656 51.3954 16.44C51.0594 17.2053 50.8261 17.9707 50.6954 18.736C50.5834 19.5013 50.6581 20.1453 50.9194 20.668C51.1248 21.0787 51.3674 21.3587 51.6474 21.508C51.9274 21.6387 52.3288 21.6947 52.8514 21.676ZM70.7159 13.332C70.5292 13.668 70.1932 14.0787 69.7079 14.564C69.2225 15.0307 68.6812 15.5067 68.0839 15.992C67.4865 16.4773 66.8705 16.944 66.2359 17.392C65.6199 17.8213 65.0785 18.1573 64.6119 18.4C64.6305 18.5493 64.6679 18.8293 64.7239 19.24C64.7799 19.6507 64.8639 20.0613 64.9759 20.472C65.0879 20.8827 65.2279 21.2373 65.3959 21.536C65.5639 21.816 65.7785 21.9 66.0399 21.788C66.9172 21.3027 67.7385 20.7613 68.5039 20.164C69.2879 19.548 70.0532 18.9133 70.7999 18.26V20.36C69.9785 21.088 69.1852 21.7507 68.4199 22.348C67.6732 22.9267 66.9452 23.3747 66.2359 23.692C65.6759 23.916 65.1905 23.972 64.7799 23.86C64.3879 23.748 64.0519 23.5427 63.7719 23.244C63.5105 22.9267 63.2959 22.5627 63.1279 22.152C62.9785 21.7227 62.8572 21.312 62.7639 20.92C62.6705 20.5093 62.6052 20.1547 62.5679 19.856C62.5305 19.5387 62.5025 19.3427 62.4839 19.268C62.3345 19.6973 62.2039 20.0893 62.0919 20.444C61.9985 20.7987 61.9052 21.1533 61.8119 21.508C61.7185 21.844 61.6252 22.208 61.5319 22.6C61.4572 22.9733 61.3639 23.4027 61.2519 23.888C60.8785 23.9813 60.4772 24.0187 60.0479 24C59.6185 23.9813 59.2172 23.9067 58.8439 23.776C58.4892 23.6267 58.1999 23.412 57.9759 23.132C57.7519 22.8333 57.6679 22.4507 57.7239 21.984C57.8919 21.1253 58.1625 20.108 58.5359 18.932C58.9279 17.756 59.3759 16.5147 59.8799 15.208C60.4025 13.9013 60.9532 12.5853 61.5319 11.26C62.1292 9.93467 62.7172 8.684 63.2959 7.508C63.8932 6.332 64.4532 5.28667 64.9759 4.372C65.4985 3.43867 65.9465 2.72933 66.3199 2.244L66.5719 2.356C66.8332 2.468 67.1039 2.48667 67.3839 2.412C67.6639 2.31867 67.9719 2.22533 68.3079 2.132C68.6625 2.03867 69.0452 1.992 69.4559 1.992C69.8852 1.97333 70.3612 2.08533 70.8839 2.328C70.4172 2.86933 69.9412 3.52266 69.4559 4.288C68.9892 5.05333 68.5319 5.84667 68.0839 6.668C67.6359 7.48933 67.2065 8.31067 66.7959 9.132C66.3852 9.93467 66.0119 10.6533 65.6759 11.288C65.9745 11.064 66.3292 10.8587 66.7399 10.672C67.1692 10.4853 67.5892 10.3547 67.9999 10.28C68.4292 10.1867 68.8305 10.168 69.2039 10.224C69.5772 10.28 69.8665 10.4293 70.0719 10.672C70.1839 10.8027 70.2959 10.9893 70.4079 11.232C70.5199 11.4747 70.6132 11.7267 70.6879 11.988C70.7625 12.2493 70.7999 12.5013 70.7999 12.744C70.8185 12.9867 70.7905 13.1827 70.7159 13.332ZM68.9239 11.96C69.0732 11.7733 69.0639 11.6707 68.8959 11.652C68.7465 11.6147 68.5039 11.652 68.1679 11.764C67.8505 11.8573 67.4679 12.0253 67.0199 12.268C66.5905 12.492 66.1519 12.7813 65.7039 13.136C65.2559 13.4907 64.8265 13.92 64.4159 14.424C64.0239 14.9093 63.6879 15.46 63.4079 16.076C63.5012 16.0573 63.6785 15.964 63.9399 15.796C64.2199 15.6093 64.5372 15.3947 64.8919 15.152C65.2652 14.9093 65.6572 14.6387 66.0679 14.34C66.4785 14.0227 66.8705 13.7147 67.2439 13.416C67.6359 13.1173 67.9812 12.8467 68.2799 12.604C68.5785 12.3427 68.7932 12.128 68.9239 11.96Z" fill="#F8B260"/>
<path d="M96.4523 7.76C96.2656 8.432 95.9576 9.05733 95.5283 9.636C95.1176 10.196 94.6229 10.7187 94.0443 11.204C93.4843 11.6893 92.8589 12.128 92.1683 12.52C91.4963 12.912 90.7963 13.2573 90.0683 13.556C91.0016 13.5933 91.8603 13.752 92.6443 14.032C93.4283 14.2933 94.0816 14.6573 94.6043 15.124C95.1269 15.572 95.4816 16.0947 95.6683 16.692C95.8736 17.2893 95.8736 17.9333 95.6683 18.624C95.4629 19.3147 95.0149 20.0333 94.3243 20.78C93.6523 21.5267 92.7003 22.2733 91.4683 23.02C90.3296 23.692 88.9576 24.2613 87.3523 24.728C85.7469 25.2133 84.0763 25.596 82.3403 25.876C80.6229 26.156 78.9149 26.352 77.2163 26.464C75.5176 26.576 74.0149 26.6133 72.7083 26.576C72.5963 26.576 72.4656 26.464 72.3163 26.24C72.1856 26.016 72.0549 25.7453 71.9243 25.428C71.7936 25.1293 71.6816 24.812 71.5883 24.476C71.4949 24.1587 71.4296 23.8973 71.3923 23.692C71.3549 23.4493 71.3736 23.1787 71.4483 22.88C71.5229 22.5813 71.7003 22.2733 71.9803 21.956C72.2789 21.62 72.6989 21.284 73.2403 20.948C73.8003 20.5933 74.5283 20.2573 75.4243 19.94C75.4616 19.9213 75.4056 20.052 75.2563 20.332C75.1069 20.5933 74.9576 20.892 74.8083 21.228C74.6589 21.564 74.5469 21.872 74.4723 22.152C74.4163 22.432 74.4909 22.5813 74.6963 22.6C75.0136 22.6187 75.3683 22.628 75.7603 22.628C76.1523 22.6093 76.5069 22.5907 76.8243 22.572C77.0856 21.4333 77.4403 20.2013 77.8882 18.876C78.3363 17.5507 78.8403 16.2253 79.4003 14.9C79.9603 13.556 80.5576 12.2493 81.1923 10.98C81.8269 9.71067 82.4709 8.55333 83.1243 7.508C83.4416 6.98533 83.8056 6.57467 84.2163 6.276C84.6269 5.97733 85.0749 5.744 85.5603 5.576C86.0643 5.408 86.5869 5.28667 87.1283 5.212C87.6883 5.13733 88.2669 5.06267 88.8643 4.988C88.1549 6.052 87.4456 7.2 86.7363 8.432C86.0269 9.664 85.3456 10.952 84.6923 12.296C85.4389 12.1093 86.3163 11.8107 87.3243 11.4C88.3323 10.9893 89.3123 10.5133 90.2643 9.972C91.2163 9.412 92.0749 8.824 92.8403 8.208C93.6243 7.57333 94.1656 6.93867 94.4643 6.304C94.7256 5.744 94.8003 5.296 94.6883 4.96C94.5763 4.60533 94.3523 4.32533 94.0163 4.12C93.6989 3.896 93.2883 3.74667 92.7843 3.672C92.2989 3.57867 91.8043 3.52267 91.3003 3.504C90.8149 3.48533 90.3483 3.49467 89.9003 3.532C89.4709 3.55067 89.1349 3.56933 88.8923 3.588C88.1829 3.644 87.3616 3.77467 86.4283 3.98C85.5136 4.18533 84.5523 4.456 83.5443 4.792C82.5363 5.10933 81.5096 5.48267 80.4643 5.912C79.4189 6.32267 78.4203 6.78 77.4683 7.284C76.5163 7.76933 75.6296 8.292 74.8083 8.852C74.0056 9.39333 73.3243 9.944 72.7643 10.504C73.0256 10.0373 73.2216 9.468 73.3522 8.796C73.4829 8.124 73.6416 7.452 73.8283 6.78C74.0336 6.08933 74.3136 5.44533 74.6683 4.848C75.0229 4.25067 75.5363 3.784 76.2083 3.448C76.8803 3.112 77.7203 2.79467 78.7283 2.496C79.7549 2.17867 80.8563 1.908 82.0323 1.684C83.2269 1.44133 84.4496 1.264 85.7003 1.152C86.9696 1.02133 88.1923 0.983999 89.3683 1.04C90.5629 1.07733 91.6643 1.22667 92.6723 1.488C93.6803 1.74933 94.5203 2.15067 95.1923 2.692C95.8643 3.21467 96.3216 3.896 96.5643 4.736C96.8256 5.55733 96.7883 6.56533 96.4523 7.76ZM92.8403 18.064C93.1203 17.5787 93.2043 17.1587 93.0923 16.804C92.9989 16.4307 92.7749 16.1227 92.4203 15.88C92.0656 15.6373 91.5989 15.4507 91.0203 15.32C90.4603 15.1707 89.8349 15.0773 89.1443 15.04C88.4536 14.984 87.7256 14.984 86.9603 15.04C86.2136 15.0773 85.4763 15.152 84.7483 15.264C84.4496 15.3387 84.1696 15.404 83.9083 15.46C83.6469 15.516 83.4136 15.5627 83.2083 15.6C82.2749 17.8587 81.5096 20.08 80.9123 22.264C82.0696 22.1147 83.2829 21.9187 84.5523 21.676C85.8216 21.4333 87.0163 21.144 88.1363 20.808C89.2563 20.4533 90.2363 20.052 91.0763 19.604C91.9349 19.156 92.5229 18.6427 92.8403 18.064ZM103.421 8.516C103.179 8.60933 102.927 8.684 102.665 8.74C102.423 8.796 102.087 8.80533 101.657 8.768L101.433 8.74L101.545 8.572L103.001 5.548L103.085 5.408C103.291 5.53867 103.515 5.548 103.757 5.436C104 5.324 104.224 5.23067 104.429 5.156C104.635 5.08133 104.831 5.016 105.017 4.96C105.223 4.88533 105.428 4.82 105.633 4.764C105.951 4.67067 106.24 4.624 106.501 4.624C106.781 4.624 107.024 4.652 107.229 4.708C107.267 4.72667 107.313 4.74533 107.369 4.764C107.425 4.764 107.472 4.78267 107.509 4.82C107.229 5.30533 106.94 5.83733 106.641 6.416C106.361 6.99467 106.072 7.60133 105.773 8.236C105.717 8.21733 105.624 8.208 105.493 8.208C105.4 8.208 105.307 8.208 105.213 8.208C105.12 8.18933 105.017 8.18 104.905 8.18C104.681 8.18 104.495 8.18933 104.345 8.208C104.196 8.22667 104.075 8.25467 103.981 8.292C103.888 8.31067 103.795 8.348 103.701 8.404C103.627 8.44133 103.533 8.47867 103.421 8.516ZM101.937 20.5C102.012 20.444 102.105 20.3787 102.217 20.304C102.871 19.8187 103.589 19.296 104.373 18.736C105.157 18.1573 105.904 17.5973 106.613 17.056V19.156C105.997 19.66 105.297 20.2107 104.513 20.808C103.748 21.4053 102.983 21.956 102.217 22.46C101.452 22.964 100.733 23.3653 100.061 23.664C99.4079 23.9627 98.8945 24.056 98.5212 23.944L96.6732 23.412C96.6545 23.412 96.6359 23.412 96.6172 23.412C96.6172 23.3933 96.6079 23.384 96.5892 23.384C96.3279 23.2533 96.1785 22.9733 96.1412 22.544C96.1039 22.1147 96.1599 21.592 96.3092 20.976C96.4585 20.3787 96.6545 19.7253 96.8972 19.016C97.1399 18.288 97.4199 17.5413 97.7372 16.776C98.0359 16.0293 98.3439 15.292 98.6612 14.564C98.9785 13.836 99.2679 13.192 99.5292 12.632C99.8092 12.0533 100.043 11.5773 100.229 11.204C100.416 10.812 100.528 10.588 100.565 10.532L100.621 10.448L100.705 10.476C100.873 10.5133 101.06 10.5133 101.265 10.476C101.489 10.42 101.723 10.3547 101.965 10.28C102.395 10.168 102.824 10.0653 103.253 9.972C103.683 9.86 104.168 9.90667 104.709 10.112L104.849 10.168L104.793 10.308C104.793 10.308 104.747 10.4013 104.653 10.588C104.373 11.1107 104.084 11.6893 103.785 12.324C103.487 12.9587 103.179 13.612 102.861 14.284C102.563 14.956 102.273 15.6187 101.993 16.272C101.713 16.9253 101.461 17.532 101.237 18.092C101.2 18.1853 101.116 18.3907 100.985 18.708C100.855 19.0067 100.733 19.324 100.621 19.66C100.509 19.996 100.425 20.3133 100.369 20.612C100.332 20.892 100.379 21.0693 100.509 21.144C100.677 21.2373 100.873 21.2093 101.097 21.06C101.34 20.9107 101.62 20.724 101.937 20.5ZM116.332 10.14C117.34 9.84133 118.086 9.87867 118.572 10.252C119.076 10.6067 119.141 11.3533 118.768 12.492C118.618 12.9587 118.422 13.4533 118.18 13.976C117.937 14.48 117.685 14.9933 117.424 15.516C117.181 16.02 116.948 16.5333 116.724 17.056C116.5 17.5787 116.322 18.0733 116.192 18.54C115.688 18.5213 115.221 18.4467 114.792 18.316C114.381 18.1853 114.045 17.9987 113.784 17.756C113.522 17.4947 113.354 17.168 113.28 16.776C113.224 16.384 113.298 15.9173 113.504 15.376C113.69 14.928 113.886 14.48 114.092 14.032C114.316 13.584 114.502 13.2293 114.652 12.968C112.617 14.3307 110.862 15.8987 109.388 17.672C107.913 19.4267 106.821 21.4987 106.112 23.888C105.776 23.9627 105.384 24 104.936 24C104.488 24 104.077 23.944 103.704 23.832C103.33 23.7013 103.041 23.496 102.836 23.216C102.612 22.9173 102.556 22.516 102.668 22.012C103.358 20.1267 104.096 18.1853 104.88 16.188C105.664 14.1907 106.532 12.3147 107.484 10.56L107.512 10.476L107.624 10.504C107.792 10.5413 107.978 10.5413 108.184 10.504C108.408 10.448 108.65 10.3827 108.912 10.308C109.341 10.196 109.761 10.0933 110.172 10C110.582 9.888 111.068 9.93467 111.628 10.14L111.768 10.196L111.712 10.336C111.712 10.336 111.665 10.4293 111.572 10.616C111.198 11.288 110.862 11.9133 110.564 12.492C110.284 13.0707 109.985 13.7147 109.668 14.424C110.321 13.7147 110.965 13.1173 111.6 12.632C112.234 12.1467 112.869 11.7267 113.504 11.372C113.877 11.148 114.316 10.924 114.82 10.7C115.342 10.4573 115.846 10.2707 116.332 10.14ZM129.765 20.444C129.84 20.3693 129.933 20.2947 130.045 20.22C130.512 19.884 130.941 19.576 131.333 19.296C131.725 18.9973 132.099 18.708 132.453 18.428C132.827 18.1293 133.191 17.84 133.545 17.56C133.9 17.2613 134.292 16.944 134.721 16.608L134.665 18.792L134.553 18.848C134.423 18.9413 134.264 19.072 134.077 19.24C133.891 19.3893 133.648 19.5947 133.349 19.856C133.219 19.9493 133.032 20.108 132.789 20.332C132.397 20.6867 131.949 21.0787 131.445 21.508C130.96 21.9187 130.456 22.3107 129.933 22.684C129.411 23.0387 128.897 23.3467 128.393 23.608C127.889 23.8507 127.432 23.9813 127.021 24H126.713C126.508 23.9627 126.219 23.888 125.845 23.776C125.491 23.664 125.127 23.5613 124.753 23.468C124.604 23.4307 124.483 23.384 124.389 23.328C124.296 23.272 124.221 23.1693 124.165 23.02C124.091 22.8707 124.053 22.6933 124.053 22.488C124.053 22.2827 124.063 22.1053 124.081 21.956L123.941 21.984C123.512 22.3387 122.999 22.7027 122.401 23.076C121.823 23.4307 121.319 23.6827 120.889 23.832C120.721 23.888 120.516 23.916 120.273 23.916C120.031 23.8973 119.779 23.86 119.517 23.804C119.424 23.7853 119.293 23.7573 119.125 23.72C118.976 23.664 118.817 23.5987 118.649 23.524C118.481 23.4493 118.323 23.384 118.173 23.328C118.024 23.2533 117.903 23.188 117.809 23.132C117.436 22.9267 117.249 22.6373 117.249 22.264C117.231 21.872 117.259 21.4893 117.333 21.116C117.408 20.7053 117.548 20.1733 117.753 19.52C117.959 18.848 118.201 18.1293 118.481 17.364C118.78 16.5987 119.107 15.8147 119.461 15.012C119.835 14.2093 120.217 13.472 120.609 12.8C121.001 12.128 121.393 11.5493 121.785 11.064C122.177 10.5787 122.56 10.2707 122.933 10.14C123.269 10.0093 123.652 9.96267 124.081 10C124.529 10.0187 124.968 10.112 125.397 10.28C125.845 10.448 126.256 10.6813 126.629 10.98C127.021 11.26 127.329 11.596 127.553 11.988C127.572 11.9133 127.609 11.8387 127.665 11.764C128.076 10.7933 128.505 9.82267 128.953 8.852C129.42 7.88133 129.868 6.976 130.297 6.136C130.727 5.27733 131.137 4.52133 131.529 3.868C131.921 3.196 132.267 2.67333 132.565 2.3L132.817 2.384C133.06 2.496 133.321 2.51467 133.601 2.44C133.9 2.36533 134.217 2.28133 134.553 2.188C134.889 2.09467 135.263 2.048 135.673 2.048C136.103 2.02933 136.588 2.14133 137.129 2.384C136.663 2.90667 136.14 3.63467 135.561 4.568C135.001 5.48267 134.413 6.50933 133.797 7.648C133.2 8.768 132.603 9.95333 132.005 11.204C131.427 12.436 130.876 13.6493 130.353 14.844C129.849 16.02 129.401 17.1213 129.009 18.148C128.636 19.1747 128.365 20.0333 128.197 20.724C128.197 20.9107 128.244 21.0227 128.337 21.06C128.505 21.1533 128.701 21.1347 128.925 21.004C129.168 20.8547 129.448 20.668 129.765 20.444ZM124.921 18.736C125.089 18.176 125.341 17.4667 125.677 16.608C126.013 15.7307 126.396 14.7693 126.825 13.724L126.769 13.668C126.228 13.1453 125.827 12.8747 125.565 12.856C125.323 12.8187 125.061 12.996 124.781 13.388C124.632 13.5747 124.511 13.7427 124.417 13.892C124.343 14.0227 124.268 14.1533 124.193 14.284C124.119 14.396 124.044 14.5267 123.969 14.676C123.895 14.8067 123.801 14.9747 123.689 15.18C123.204 16.076 122.775 16.9533 122.401 17.812C122.047 18.652 121.748 19.4827 121.505 20.304C121.412 20.5653 121.403 20.78 121.477 20.948C121.571 21.116 121.804 21.1253 122.177 20.976C122.215 20.9387 122.252 20.92 122.289 20.92C122.345 20.9013 122.392 20.8733 122.429 20.836C122.915 20.5373 123.325 20.248 123.661 19.968C123.997 19.688 124.315 19.436 124.613 19.212L124.837 19.072L124.921 18.736ZM139.133 12.38C138.928 12.268 138.732 12.24 138.545 12.296C138.377 12.352 138.237 12.464 138.125 12.632C138.032 12.7813 137.966 12.9773 137.929 13.22C137.91 13.4627 137.948 13.724 138.041 14.004C138.172 14.396 138.349 14.8253 138.573 15.292C138.797 15.74 139.021 16.2253 139.245 16.748C139.469 17.2707 139.674 17.8213 139.861 18.4C140.048 18.9787 140.169 19.576 140.225 20.192C140.318 20.9013 140.178 21.536 139.805 22.096C139.432 22.656 138.918 23.132 138.265 23.524C137.63 23.8973 136.912 24.168 136.109 24.336C135.325 24.5227 134.55 24.588 133.785 24.532C133.038 24.4947 132.366 24.3267 131.769 24.028C131.172 23.7293 130.752 23.2907 130.509 22.712C130.229 22.0587 130.285 21.3213 130.677 20.5C131.069 19.66 131.769 18.7733 132.777 17.84C132.852 17.7653 132.954 17.672 133.085 17.56C133.234 17.4293 133.384 17.2987 133.533 17.168C133.701 17.0187 133.86 16.8787 134.009 16.748C134.158 16.6173 134.28 16.5147 134.373 16.44C134.522 16.72 134.625 17.0093 134.681 17.308C134.756 17.6067 134.793 17.896 134.793 18.176C134.793 18.456 134.774 18.708 134.737 18.932C134.7 19.156 134.653 19.3333 134.597 19.464C134.504 19.6693 134.364 19.8467 134.177 19.996C134.009 20.1453 133.841 20.304 133.673 20.472C133.505 20.64 133.374 20.8267 133.281 21.032C133.188 21.2187 133.188 21.452 133.281 21.732C133.374 22.0307 133.58 22.236 133.897 22.348C134.233 22.46 134.578 22.4693 134.933 22.376C135.306 22.2827 135.642 22.0867 135.941 21.788C136.258 21.4707 136.436 21.0413 136.473 20.5C136.51 19.94 136.426 19.3893 136.221 18.848C136.034 18.3067 135.81 17.7653 135.549 17.224C135.288 16.6827 135.036 16.132 134.793 15.572C134.569 15.012 134.448 14.424 134.429 13.808C134.392 12.9307 134.616 12.1747 135.101 11.54C135.586 10.8867 136.193 10.4013 136.921 10.084C137.724 9.72933 138.489 9.58933 139.217 9.664C139.964 9.72 140.617 9.90667 141.177 10.224C141.737 10.5413 142.176 10.952 142.493 11.456C142.81 11.96 142.941 12.4827 142.885 13.024C142.848 13.5467 142.586 14.0507 142.101 14.536C141.634 15.0213 140.897 15.404 139.889 15.684C139.889 15.404 139.88 15.096 139.861 14.76C139.842 14.424 139.805 14.0973 139.749 13.78C139.712 13.444 139.646 13.1547 139.553 12.912C139.46 12.6507 139.32 12.4733 139.133 12.38Z" fill="#E5E5E5"/>
</svg>
