<svg width="15" height="15" viewBox="0 0 15 15" fill="none" xmlns="http://www.w3.org/2000/svg">
<path d="M12.2621 6.66394H11.808V4.3107C11.808 1.93291 9.87506 0 7.50034 0C5.12562 0 3.19271 1.93291 3.19271 4.30763V6.66087H2.73863C1.98081 6.66087 1.36719 7.27756 1.36719 8.03232V13.6286C1.36719 14.3864 1.98388 15 2.73863 15H11.0532C11.357 15 11.6055 14.7515 11.6055 14.4477C11.6055 14.144 11.357 13.8955 11.0532 13.8955H2.73863C2.59136 13.8955 2.47171 13.7758 2.47171 13.6286V8.03539C2.47171 7.88812 2.59136 7.76846 2.73863 7.76846H12.2621C12.4093 7.76846 12.529 7.88812 12.529 8.03539V13.6316C12.529 13.9354 12.7775 14.1839 13.0812 14.1839C13.385 14.1839 13.6335 13.9354 13.6335 13.6316V8.03539C13.6335 7.27756 13.0168 6.66394 12.2621 6.66394ZM10.7035 6.66087H4.29723V4.30763C4.29723 2.5404 5.73311 1.10452 7.50034 1.10452C9.26758 1.10452 10.7035 2.5404 10.7035 4.30763V6.66087Z" fill="#C4C4C4"/>
<path d="M8.82518 10.2812C8.52144 10.2812 8.27292 10.5298 8.27292 10.8335C8.27292 11.26 7.92622 11.6067 7.49975 11.6067C7.07329 11.6067 6.72659 11.26 6.72659 10.8335C6.72659 10.407 7.07329 10.0603 7.49975 10.0603C7.8035 10.0603 8.05202 9.81181 8.05202 9.50807C8.05202 9.20433 7.8035 8.95581 7.49975 8.95581C6.4658 8.95581 5.62207 9.79954 5.62207 10.8335C5.62207 11.8674 6.4658 12.7112 7.49975 12.7112C8.53371 12.7112 9.37744 11.8674 9.37744 10.8335C9.37744 10.5298 9.12892 10.2812 8.82518 10.2812Z" fill="#C4C4C4"/>
</svg>
